<svg id="visual" viewBox="0 0 900 600" width="900" height="600" xmlns="http://www.w3.org/2000/svg" xmlns:xlink="http://www.w3.org/1999/xlink" version="1.1"><g stroke-width="1" stroke-linejoin="bevel"><path d="M469 266L429 224L412 269Z" fill="#11354c" stroke="#11354c"></path><path d="M469 266L525 220L429 224Z" fill="#2097ce" stroke="#2097ce"></path><path d="M412 269L416 366L469 266Z" fill="#00101c" stroke="#00101c"></path><path d="M469 266L607 322L525 220Z" fill="#1f79a7" stroke="#1f79a7"></path><path d="M525 220L469 110L429 224Z" fill="#11354c" stroke="#11354c"></path><path d="M429 224L299 208L412 269Z" fill="#081c2b" stroke="#081c2b"></path><path d="M294 107L299 208L429 224Z" fill="#15425d" stroke="#15425d"></path><path d="M412 269L299 336L416 366Z" fill="#15425d" stroke="#15425d"></path><path d="M299 208L299 336L412 269Z" fill="#11354c" stroke="#11354c"></path><path d="M664 180L574 160L525 220Z" fill="#1b5d81" stroke="#1b5d81"></path><path d="M525 220L574 160L469 110Z" fill="#2088ba" stroke="#2088ba"></path><path d="M416 366L530 391L469 266Z" fill="#1f79a7" stroke="#1f79a7"></path><path d="M530 391L607 322L469 266Z" fill="#184f6f" stroke="#184f6f"></path><path d="M511 0L367 61L469 110Z" fill="#081c2b" stroke="#081c2b"></path><path d="M469 110L367 61L429 224Z" fill="#1d6b94" stroke="#1d6b94"></path><path d="M367 61L294 107L429 224Z" fill="#11354c" stroke="#11354c"></path><path d="M196 375L262 410L299 336Z" fill="#184f6f" stroke="#184f6f"></path><path d="M664 180L598 93L574 160Z" fill="#00101c" stroke="#00101c"></path><path d="M574 160L598 93L469 110Z" fill="#0d283b" stroke="#0d283b"></path><path d="M607 322L664 180L525 220Z" fill="#00101c" stroke="#00101c"></path><path d="M299 336L262 410L416 366Z" fill="#1d6b94" stroke="#1d6b94"></path><path d="M416 366L522 494L530 391Z" fill="#0d283b" stroke="#0d283b"></path><path d="M201 298L299 336L299 208Z" fill="#11354c" stroke="#11354c"></path><path d="M183 186L201 298L299 208Z" fill="#2088ba" stroke="#2088ba"></path><path d="M394 516L522 494L416 366Z" fill="#1b5d81" stroke="#1b5d81"></path><path d="M530 391L637 432L607 322Z" fill="#15425d" stroke="#15425d"></path><path d="M598 93L511 0L469 110Z" fill="#0d283b" stroke="#0d283b"></path><path d="M294 107L183 186L299 208Z" fill="#15425d" stroke="#15425d"></path><path d="M610 476L637 432L530 391Z" fill="#1b5d81" stroke="#1b5d81"></path><path d="M607 322L724 270L664 180Z" fill="#00101c" stroke="#00101c"></path><path d="M367 61L283 0L294 107Z" fill="#081c2b" stroke="#081c2b"></path><path d="M294 107L214 88L183 186Z" fill="#2088ba" stroke="#2088ba"></path><path d="M511 0L360 0L367 61Z" fill="#1b5d81" stroke="#1b5d81"></path><path d="M262 410L394 516L416 366Z" fill="#081c2b" stroke="#081c2b"></path><path d="M114 267L196 375L201 298Z" fill="#1f79a7" stroke="#1f79a7"></path><path d="M201 298L196 375L299 336Z" fill="#2088ba" stroke="#2088ba"></path><path d="M262 410L311 531L394 516Z" fill="#1f79a7" stroke="#1f79a7"></path><path d="M522 494L610 476L530 391Z" fill="#15425d" stroke="#15425d"></path><path d="M283 0L214 88L294 107Z" fill="#1f79a7" stroke="#1f79a7"></path><path d="M696 415L724 270L607 322Z" fill="#11354c" stroke="#11354c"></path><path d="M664 180L705 121L598 93Z" fill="#1f79a7" stroke="#1f79a7"></path><path d="M598 93L598 0L511 0Z" fill="#184f6f" stroke="#184f6f"></path><path d="M760 232L705 121L664 180Z" fill="#0d283b" stroke="#0d283b"></path><path d="M360 0L283 0L367 61Z" fill="#11354c" stroke="#11354c"></path><path d="M720 0L598 0L598 93Z" fill="#11354c" stroke="#11354c"></path><path d="M713 536L696 415L637 432Z" fill="#15425d" stroke="#15425d"></path><path d="M637 432L696 415L607 322Z" fill="#1b5d81" stroke="#1b5d81"></path><path d="M204 481L311 531L262 410Z" fill="#2088ba" stroke="#2088ba"></path><path d="M394 516L515 600L522 494Z" fill="#2097ce" stroke="#2097ce"></path><path d="M814 281L760 232L724 270Z" fill="#11354c" stroke="#11354c"></path><path d="M724 270L760 232L664 180Z" fill="#1f79a7" stroke="#1f79a7"></path><path d="M183 186L114 267L201 298Z" fill="#1f79a7" stroke="#1f79a7"></path><path d="M196 375L204 481L262 410Z" fill="#1b5d81" stroke="#1b5d81"></path><path d="M106 162L114 267L183 186Z" fill="#1d6b94" stroke="#1d6b94"></path><path d="M137 484L204 481L196 375Z" fill="#184f6f" stroke="#184f6f"></path><path d="M283 0L215 0L214 88Z" fill="#2097ce" stroke="#2097ce"></path><path d="M120 85L106 162L183 186Z" fill="#2088ba" stroke="#2088ba"></path><path d="M120 85L183 186L214 88Z" fill="#00101c" stroke="#00101c"></path><path d="M363 600L515 600L394 516Z" fill="#2097ce" stroke="#2097ce"></path><path d="M522 494L596 600L610 476Z" fill="#00101c" stroke="#00101c"></path><path d="M713 536L770 414L696 415Z" fill="#1f79a7" stroke="#1f79a7"></path><path d="M271 600L363 600L311 531Z" fill="#15425d" stroke="#15425d"></path><path d="M311 531L363 600L394 516Z" fill="#0d283b" stroke="#0d283b"></path><path d="M215 0L120 85L214 88Z" fill="#1b5d81" stroke="#1b5d81"></path><path d="M760 232L761 85L705 121Z" fill="#2097ce" stroke="#2097ce"></path><path d="M705 121L720 0L598 93Z" fill="#15425d" stroke="#15425d"></path><path d="M713 536L637 432L610 476Z" fill="#00101c" stroke="#00101c"></path><path d="M696 415L770 414L724 270Z" fill="#081c2b" stroke="#081c2b"></path><path d="M760 232L900 175L761 85Z" fill="#081c2b" stroke="#081c2b"></path><path d="M770 414L814 281L724 270Z" fill="#2097ce" stroke="#2097ce"></path><path d="M761 85L720 0L705 121Z" fill="#15425d" stroke="#15425d"></path><path d="M515 600L596 600L522 494Z" fill="#15425d" stroke="#15425d"></path><path d="M92 429L137 484L196 375Z" fill="#1d6b94" stroke="#1d6b94"></path><path d="M204 481L271 600L311 531Z" fill="#11354c" stroke="#11354c"></path><path d="M173 600L271 600L204 481Z" fill="#00101c" stroke="#00101c"></path><path d="M114 267L92 429L196 375Z" fill="#1b5d81" stroke="#1b5d81"></path><path d="M0 384L92 429L114 267Z" fill="#1b5d81" stroke="#1b5d81"></path><path d="M596 600L713 536L610 476Z" fill="#0d283b" stroke="#0d283b"></path><path d="M900 79L789 0L761 85Z" fill="#184f6f" stroke="#184f6f"></path><path d="M761 85L789 0L720 0Z" fill="#2097ce" stroke="#2097ce"></path><path d="M0 132L0 211L106 162Z" fill="#081c2b" stroke="#081c2b"></path><path d="M0 211L0 281L114 267Z" fill="#15425d" stroke="#15425d"></path><path d="M215 0L89 0L120 85Z" fill="#1b5d81" stroke="#1b5d81"></path><path d="M137 484L173 600L204 481Z" fill="#1b5d81" stroke="#1b5d81"></path><path d="M136 600L173 600L137 484Z" fill="#1f79a7" stroke="#1f79a7"></path><path d="M723 600L795 514L713 536Z" fill="#1f79a7" stroke="#1f79a7"></path><path d="M713 536L795 514L770 414Z" fill="#15425d" stroke="#15425d"></path><path d="M900 370L900 300L814 281Z" fill="#2097ce" stroke="#2097ce"></path><path d="M0 211L114 267L106 162Z" fill="#0d283b" stroke="#0d283b"></path><path d="M0 539L136 600L137 484Z" fill="#081c2b" stroke="#081c2b"></path><path d="M0 132L106 162L120 85Z" fill="#1f79a7" stroke="#1f79a7"></path><path d="M596 600L723 600L713 536Z" fill="#15425d" stroke="#15425d"></path><path d="M0 0L0 132L120 85Z" fill="#081c2b" stroke="#081c2b"></path><path d="M0 281L0 384L114 267Z" fill="#2097ce" stroke="#2097ce"></path><path d="M0 539L137 484L92 429Z" fill="#15425d" stroke="#15425d"></path><path d="M900 370L814 281L770 414Z" fill="#184f6f" stroke="#184f6f"></path><path d="M814 281L900 175L760 232Z" fill="#00101c" stroke="#00101c"></path><path d="M900 300L900 175L814 281Z" fill="#1b5d81" stroke="#1b5d81"></path><path d="M900 473L900 370L770 414Z" fill="#0d283b" stroke="#0d283b"></path><path d="M900 175L900 79L761 85Z" fill="#081c2b" stroke="#081c2b"></path><path d="M89 0L0 0L120 85Z" fill="#1f79a7" stroke="#1f79a7"></path><path d="M839 600L900 473L795 514Z" fill="#1d6b94" stroke="#1d6b94"></path><path d="M795 514L900 473L770 414Z" fill="#1d6b94" stroke="#1d6b94"></path><path d="M0 384L0 539L92 429Z" fill="#2088ba" stroke="#2088ba"></path><path d="M900 79L900 0L789 0Z" fill="#184f6f" stroke="#184f6f"></path><path d="M723 600L839 600L795 514Z" fill="#1f79a7" stroke="#1f79a7"></path><path d="M0 539L0 600L136 600Z" fill="#2088ba" stroke="#2088ba"></path><path d="M839 600L900 600L900 473Z" fill="#2088ba" stroke="#2088ba"></path></g></svg>